<?xml version="1.0" encoding="UTF-8"?>
<svg version="1.1" xmlns="http://www.w3.org/2000/svg"
  viewBox="0 0 6.3168 7.19785">
  <path
    d="M2.8752 7.19785C2.9584 7.19785 3.03369 7.16265 3.09702 7.09595L5.65859 4.53706C5.72192 4.46851 5.75039 4.39844 5.75039 4.3186C5.75039 4.15371 5.6271 4.02519 5.46187 4.02519C5.38203 4.02519 5.3022 4.05518 5.252 4.10537L4.23286 5.11103L2.87183 6.58476L1.51753 5.11103L0.499904 4.10537C0.448194 4.05518 0.36836 4.02519 0.29004 4.02519C0.123291 4.02519 0 4.15371 0 4.3186C0 4.39844 0.0299805 4.46851 0.0933108 4.53706L2.65337 7.09595C2.7167 7.16265 2.79351 7.19785 2.8752 7.19785ZM2.8752 6.82783C3.03184 6.82783 3.13862 6.71802 3.13862 6.56138L3.17534 5.47524L3.17534 0.295264C3.17534 0.123291 3.04868 0 2.8752 0C2.70171 0 2.57656 0.123291 2.57656 0.295264L2.57656 5.47524L2.61177 6.5644C2.61177 6.71802 2.72007 6.82783 2.8752 6.82783Z"
    fill="white" fill-opacity="0.85"/>
</svg>
